<svg width="512" height="512" viewBox="0 0 512 512" fill="none" xmlns="http://www.w3.org/2000/svg">
<g clip-path="url(#clip0_2066_352)">
<path d="M309.446 512C326.565 512 341.494 497.071 341.494 479.952V405.106H362.893C375.734 405.106 384.292 396.545 384.292 383.707V169.937H127.708V383.709C127.708 396.548 136.268 405.108 149.107 405.108H170.508V479.954C170.508 497.073 185.433 512.002 202.556 512.002C219.673 512.002 234.6 497.073 234.6 479.954V405.108H277.4V479.954C277.398 497.071 292.327 512 309.446 512ZM437.74 383.709C454.859 383.709 469.785 368.782 469.785 351.661V201.971C469.785 184.943 454.859 169.937 437.74 169.937C420.619 169.937 405.692 184.943 405.692 201.971V351.661C405.692 368.78 420.618 383.709 437.74 383.709ZM74.2614 383.709C91.3823 383.709 106.309 368.782 106.309 351.661V201.971C106.309 184.943 91.384 169.937 74.2614 169.937C57.1423 169.937 42.2169 184.943 42.2169 201.971V351.661C42.2169 368.78 57.1423 383.709 74.2614 383.709ZM358.611 3.22906C354.333 -1.07635 347.964 -1.07635 343.686 3.22906L314.985 31.8344L313.661 33.1568C296.643 24.6348 277.562 20.3789 256.314 20.3379L256.003 20.3345H255.999L255.685 20.3379C234.438 20.3789 215.357 24.6348 198.341 33.1568L197.013 31.8344L168.314 3.22906C164.033 -1.07635 157.667 -1.07635 153.389 3.22906C149.107 7.51054 149.107 13.8644 153.389 18.1425L181.152 45.9107C172.206 51.8836 164.094 59.1925 157.04 67.5522C140.151 87.5706 129.379 113.623 127.898 141.851C127.884 142.145 127.855 142.436 127.842 142.729C127.752 144.659 127.707 146.591 127.708 148.523H384.292C384.292 146.584 384.246 144.651 384.158 142.729C384.145 142.436 384.116 142.145 384.099 141.851C382.621 113.623 371.845 87.5689 354.957 67.5539C347.906 59.1942 339.791 51.8853 330.845 45.9124L358.611 18.1442C362.893 13.8644 362.893 7.51054 358.611 3.22906ZM202.515 111.16C198.263 111.16 194.186 109.471 191.179 106.464C188.173 103.458 186.484 99.3806 186.484 95.129C186.484 90.8774 188.173 86.7999 191.179 83.7935C194.186 80.7871 198.263 79.0982 202.515 79.0982C206.766 79.0982 210.844 80.7871 213.85 83.7935C216.857 86.7999 218.546 90.8774 218.546 95.129C218.546 99.3806 216.857 103.458 213.85 106.464C210.844 109.471 206.766 111.16 202.515 111.16ZM309.485 111.16C305.234 111.16 301.156 109.471 298.15 106.464C295.143 103.458 293.454 99.3806 293.454 95.129C293.454 90.8774 295.143 86.7999 298.15 83.7935C301.156 80.7871 305.234 79.0982 309.485 79.0982C313.737 79.0982 317.814 80.7871 320.821 83.7935C323.827 86.7999 325.516 90.8774 325.516 95.129C325.516 99.3806 323.827 103.458 320.821 106.464C317.814 109.471 313.737 111.16 309.485 111.16Z" fill="black"/>
<g clip-path="url(#clip1_2066_352)">
<path d="M309.446 512C326.565 512 341.494 497.071 341.494 479.952V405.106H362.893C375.734 405.106 384.292 396.545 384.292 383.707V169.937H127.708V383.709C127.708 396.548 136.268 405.108 149.107 405.108H170.508V479.954C170.508 497.073 185.433 512.002 202.556 512.002C219.673 512.002 234.6 497.073 234.6 479.954V405.108H277.4V479.954C277.398 497.071 292.327 512 309.446 512ZM437.74 383.709C454.859 383.709 469.785 368.782 469.785 351.661V201.971C469.785 184.943 454.859 169.937 437.74 169.937C420.619 169.937 405.692 184.943 405.692 201.971V351.661C405.692 368.78 420.618 383.709 437.74 383.709ZM74.2614 383.709C91.3823 383.709 106.309 368.782 106.309 351.661V201.971C106.309 184.943 91.384 169.937 74.2614 169.937C57.1423 169.937 42.2169 184.943 42.2169 201.971V351.661C42.2169 368.78 57.1423 383.709 74.2614 383.709ZM358.611 3.22906C354.333 -1.07635 347.964 -1.07635 343.686 3.22906L314.985 31.8344L313.661 33.1568C296.643 24.6348 277.562 20.3789 256.314 20.3379L256.003 20.3345H255.999L255.685 20.3379C234.438 20.3789 215.357 24.6348 198.341 33.1568L197.013 31.8344L168.314 3.22906C164.033 -1.07635 157.667 -1.07635 153.389 3.22906C149.107 7.51054 149.107 13.8644 153.389 18.1425L181.152 45.9107C172.206 51.8836 164.094 59.1925 157.04 67.5522C140.151 87.5706 129.379 113.623 127.898 141.851C127.884 142.145 127.855 142.436 127.842 142.729C127.752 144.659 127.707 146.591 127.708 148.523H384.292C384.292 146.584 384.246 144.651 384.158 142.729C384.145 142.436 384.116 142.145 384.099 141.851C382.621 113.623 371.845 87.5689 354.957 67.5539C347.906 59.1942 339.791 51.8853 330.845 45.9124L358.611 18.1442C362.893 13.8644 362.893 7.51054 358.611 3.22906ZM202.515 111.16C198.263 111.16 194.186 109.471 191.179 106.464C188.173 103.458 186.484 99.3806 186.484 95.129C186.484 90.8774 188.173 86.7999 191.179 83.7935C194.186 80.7871 198.263 79.0982 202.515 79.0982C206.766 79.0982 210.844 80.7871 213.85 83.7935C216.857 86.7999 218.546 90.8774 218.546 95.129C218.546 99.3806 216.857 103.458 213.85 106.464C210.844 109.471 206.766 111.16 202.515 111.16ZM309.485 111.16C305.234 111.16 301.156 109.471 298.15 106.464C295.143 103.458 293.454 99.3806 293.454 95.129C293.454 90.8774 295.143 86.7999 298.15 83.7935C301.156 80.7871 305.234 79.0982 309.485 79.0982C313.737 79.0982 317.814 80.7871 320.821 83.7935C323.827 86.7999 325.516 90.8774 325.516 95.129C325.516 99.3806 323.827 103.458 320.821 106.464C317.814 109.471 313.737 111.16 309.485 111.16Z" fill="black"/>
</g>
</g>
<defs>
<clipPath id="clip0_2066_352">
<rect width="512" height="512" fill="white"/>
</clipPath>
<clipPath id="clip1_2066_352">
<rect width="512" height="512" fill="white"/>
</clipPath>
</defs>
</svg>
